<?xml version="1.0" encoding="UTF-8" standalone="no"?>
<!DOCTYPE svg PUBLIC "-//W3C//DTD SVG 1.1//EN"
 "http://www.w3.org/Graphics/SVG/1.1/DTD/svg11.dtd">
<!-- Generated by graphviz version 2.47.0 (20210316.0004)
 -->
<!-- Title: dependencies Pages: 1 -->
<svg width="2326pt" height="211pt"
 viewBox="0.00 0.00 2326.00 211.00" xmlns="http://www.w3.org/2000/svg" xmlns:xlink="http://www.w3.org/1999/xlink">
<g id="graph0" class="graph" transform="scale(1 1) rotate(0) translate(4 207)">
<title>dependencies</title>
<polygon fill="white" stroke="transparent" points="-4,4 -4,-207 2322,-207 2322,4 -4,4"/>
<text text-anchor="start" x="1138.01" y="-42.4" font-family="Times-12" font-weight="bold" font-size="14.00">Legend</text>
<polygon fill="#ffffb3" stroke="transparent" points="925,-10 925,-30 945,-30 945,-10 925,-10"/>
<text text-anchor="start" x="948.63" y="-15.4" font-family="Times-12" font-size="14.00"> &#160;Declarations</text>
<polygon fill="#8dd3c7" stroke="transparent" points="1038,-10 1038,-30 1058,-30 1058,-10 1038,-10"/>
<text text-anchor="start" x="1061.73" y="-15.4" font-family="Times-12" font-size="14.00"> &#160;Module</text>
<polygon fill="#80b1d3" stroke="transparent" points="1124,-10 1124,-30 1144,-30 1144,-10 1124,-10"/>
<text text-anchor="start" x="1147.78" y="-15.4" font-family="Times-12" font-size="14.00"> &#160;Bootstrap</text>
<polygon fill="#fdb462" stroke="transparent" points="1221,-10 1221,-30 1241,-30 1241,-10 1221,-10"/>
<text text-anchor="start" x="1244.67" y="-15.4" font-family="Times-12" font-size="14.00"> &#160;Providers</text>
<polygon fill="#fb8072" stroke="transparent" points="1317,-10 1317,-30 1337,-30 1337,-10 1317,-10"/>
<text text-anchor="start" x="1340.73" y="-15.4" font-family="Times-12" font-size="14.00"> &#160;Exports</text>
<g id="clust1" class="cluster">
<title>cluster_AppModule</title>
<polygon fill="none" stroke="black" stroke-dasharray="1,5" points="8,-70 8,-195 2310,-195 2310,-70 8,-70"/>
</g>
<g id="clust3" class="cluster">
<title>cluster_AppModule_imports</title>
<polygon fill="none" stroke="black" points="154,-78 154,-130 2302,-130 2302,-78 154,-78"/>
</g>
<g id="clust6" class="cluster">
<title>cluster_AppModule_providers</title>
<polygon fill="none" stroke="black" points="16,-78 16,-130 146,-130 146,-78 16,-78"/>
</g>
<!-- AuthModule -->
<g id="node1" class="node">
<title>AuthModule</title>
<polygon fill="#8dd3c7" stroke="black" points="2293.55,-122 2290.55,-126 2269.55,-126 2266.55,-122 2206.45,-122 2206.45,-86 2293.55,-86 2293.55,-122"/>
<text text-anchor="middle" x="2250" y="-99.8" font-family="Times,serif" font-size="14.00">AuthModule</text>
</g>
<!-- AppModule -->
<g id="node16" class="node">
<title>AppModule</title>
<polygon fill="#8dd3c7" stroke="black" points="1245.66,-187 1242.66,-191 1221.66,-191 1218.66,-187 1162.34,-187 1162.34,-151 1245.66,-151 1245.66,-187"/>
<text text-anchor="middle" x="1204" y="-164.8" font-family="Times,serif" font-size="14.00">AppModule</text>
</g>
<!-- AuthModule&#45;&gt;AppModule -->
<g id="edge1" class="edge">
<title>AuthModule&#45;&gt;AppModule</title>
<path fill="none" stroke="black" d="M2250,-122.32C2250,-145.66 2250,-183 2250,-183 2250,-183 1255.97,-183 1255.97,-183"/>
<polygon fill="black" stroke="black" points="1255.97,-179.5 1245.97,-183 1255.97,-186.5 1255.97,-179.5"/>
</g>
<!-- CategoriesModule -->
<g id="node2" class="node">
<title>CategoriesModule</title>
<polygon fill="#8dd3c7" stroke="black" points="2188.92,-122 2185.92,-126 2164.92,-126 2161.92,-122 2069.08,-122 2069.08,-86 2188.92,-86 2188.92,-122"/>
<text text-anchor="middle" x="2129" y="-99.8" font-family="Times,serif" font-size="14.00">CategoriesModule</text>
</g>
<!-- CategoriesModule&#45;&gt;AppModule -->
<g id="edge2" class="edge">
<title>CategoriesModule&#45;&gt;AppModule</title>
<path fill="none" stroke="black" d="M2129,-122.29C2129,-144.21 2129,-178 2129,-178 2129,-178 1255.85,-178 1255.85,-178"/>
<polygon fill="black" stroke="black" points="1255.85,-174.5 1245.85,-178 1255.85,-181.5 1255.85,-174.5"/>
</g>
<!-- CompaniesModule -->
<g id="node3" class="node">
<title>CompaniesModule</title>
<polygon fill="#8dd3c7" stroke="black" points="2051.04,-122 2048.04,-126 2027.04,-126 2024.04,-122 1928.96,-122 1928.96,-86 2051.04,-86 2051.04,-122"/>
<text text-anchor="middle" x="1990" y="-99.8" font-family="Times,serif" font-size="14.00">CompaniesModule</text>
</g>
<!-- CompaniesModule&#45;&gt;AppModule -->
<g id="edge3" class="edge">
<title>CompaniesModule&#45;&gt;AppModule</title>
<path fill="none" stroke="black" d="M1990,-122.03C1990,-142.77 1990,-174 1990,-174 1990,-174 1255.7,-174 1255.7,-174"/>
<polygon fill="black" stroke="black" points="1255.7,-170.5 1245.7,-174 1255.7,-177.5 1255.7,-170.5"/>
</g>
<!-- JobboardContactsModule -->
<g id="node4" class="node">
<title>JobboardContactsModule</title>
<polygon fill="#8dd3c7" stroke="black" points="1910.86,-122 1907.86,-126 1886.86,-126 1883.86,-122 1751.14,-122 1751.14,-86 1910.86,-86 1910.86,-122"/>
<text text-anchor="middle" x="1831" y="-99.8" font-family="Times,serif" font-size="14.00">JobboardContactsModule</text>
</g>
<!-- JobboardContactsModule&#45;&gt;AppModule -->
<g id="edge4" class="edge">
<title>JobboardContactsModule&#45;&gt;AppModule</title>
<path fill="none" stroke="black" d="M1831,-122.11C1831,-141.34 1831,-169 1831,-169 1831,-169 1256.11,-169 1256.11,-169"/>
<polygon fill="black" stroke="black" points="1256.11,-165.5 1246.11,-169 1256.11,-172.5 1256.11,-165.5"/>
</g>
<!-- JobboardModule -->
<g id="node5" class="node">
<title>JobboardModule</title>
<polygon fill="#8dd3c7" stroke="black" points="1733.37,-122 1730.37,-126 1709.37,-126 1706.37,-122 1622.63,-122 1622.63,-86 1733.37,-86 1733.37,-122"/>
<text text-anchor="middle" x="1678" y="-99.8" font-family="Times,serif" font-size="14.00">JobboardModule</text>
</g>
<!-- JobboardModule&#45;&gt;AppModule -->
<g id="edge5" class="edge">
<title>JobboardModule&#45;&gt;AppModule</title>
<path fill="none" stroke="black" d="M1678,-122.3C1678,-140.27 1678,-165 1678,-165 1678,-165 1256.06,-165 1256.06,-165"/>
<polygon fill="black" stroke="black" points="1256.06,-161.5 1246.06,-165 1256.06,-168.5 1256.06,-161.5"/>
</g>
<!-- NotificationsModule -->
<g id="node6" class="node">
<title>NotificationsModule</title>
<polygon fill="#8dd3c7" stroke="black" points="1604.14,-122 1601.14,-126 1580.14,-126 1577.14,-122 1471.86,-122 1471.86,-86 1604.14,-86 1604.14,-122"/>
<text text-anchor="middle" x="1538" y="-99.8" font-family="Times,serif" font-size="14.00">NotificationsModule</text>
</g>
<!-- NotificationsModule&#45;&gt;AppModule -->
<g id="edge6" class="edge">
<title>NotificationsModule&#45;&gt;AppModule</title>
<path fill="none" stroke="black" d="M1538,-122.03C1538,-138.4 1538,-160 1538,-160 1538,-160 1255.96,-160 1255.96,-160"/>
<polygon fill="black" stroke="black" points="1255.96,-156.5 1245.96,-160 1255.96,-163.5 1255.96,-156.5"/>
</g>
<!-- OptionsModule -->
<g id="node7" class="node">
<title>OptionsModule</title>
<polygon fill="#8dd3c7" stroke="black" points="1453.88,-122 1450.88,-126 1429.88,-126 1426.88,-122 1350.12,-122 1350.12,-86 1453.88,-86 1453.88,-122"/>
<text text-anchor="middle" x="1402" y="-99.8" font-family="Times,serif" font-size="14.00">OptionsModule</text>
</g>
<!-- OptionsModule&#45;&gt;AppModule -->
<g id="edge7" class="edge">
<title>OptionsModule&#45;&gt;AppModule</title>
<path fill="none" stroke="black" d="M1402,-122.19C1402,-137.18 1402,-156 1402,-156 1402,-156 1255.99,-156 1255.99,-156"/>
<polygon fill="black" stroke="black" points="1255.99,-152.5 1245.99,-156 1255.99,-159.5 1255.99,-152.5"/>
</g>
<!-- ParticularsModule -->
<g id="node8" class="node">
<title>ParticularsModule</title>
<polygon fill="#8dd3c7" stroke="black" points="1331.91,-122 1328.91,-126 1307.91,-126 1304.91,-122 1212.09,-122 1212.09,-86 1331.91,-86 1331.91,-122"/>
<text text-anchor="middle" x="1272" y="-99.8" font-family="Times,serif" font-size="14.00">ParticularsModule</text>
</g>
<!-- ParticularsModule&#45;&gt;AppModule -->
<g id="edge8" class="edge">
<title>ParticularsModule&#45;&gt;AppModule</title>
<path fill="none" stroke="black" d="M1229.06,-122.11C1229.06,-122.11 1229.06,-140.99 1229.06,-140.99"/>
<polygon fill="black" stroke="black" points="1225.56,-140.99 1229.06,-150.99 1232.56,-140.99 1225.56,-140.99"/>
</g>
<!-- PaymentsModule -->
<g id="node9" class="node">
<title>PaymentsModule</title>
<polygon fill="#8dd3c7" stroke="black" points="1193.99,-122 1190.99,-126 1169.99,-126 1166.99,-122 1080.01,-122 1080.01,-86 1193.99,-86 1193.99,-122"/>
<text text-anchor="middle" x="1137" y="-99.8" font-family="Times,serif" font-size="14.00">PaymentsModule</text>
</g>
<!-- PaymentsModule&#45;&gt;AppModule -->
<g id="edge9" class="edge">
<title>PaymentsModule&#45;&gt;AppModule</title>
<path fill="none" stroke="black" d="M1178.08,-122.11C1178.08,-122.11 1178.08,-140.99 1178.08,-140.99"/>
<polygon fill="black" stroke="black" points="1174.58,-140.99 1178.08,-150.99 1181.58,-140.99 1174.58,-140.99"/>
</g>
<!-- QuotesModule -->
<g id="node10" class="node">
<title>QuotesModule</title>
<polygon fill="#8dd3c7" stroke="black" points="1061.71,-122 1058.71,-126 1037.71,-126 1034.71,-122 962.29,-122 962.29,-86 1061.71,-86 1061.71,-122"/>
<text text-anchor="middle" x="1012" y="-99.8" font-family="Times,serif" font-size="14.00">QuotesModule</text>
</g>
<!-- QuotesModule&#45;&gt;AppModule -->
<g id="edge10" class="edge">
<title>QuotesModule&#45;&gt;AppModule</title>
<path fill="none" stroke="black" d="M1012,-122.19C1012,-137.18 1012,-156 1012,-156 1012,-156 1152.34,-156 1152.34,-156"/>
<polygon fill="black" stroke="black" points="1152.34,-159.5 1162.34,-156 1152.34,-152.5 1152.34,-159.5"/>
</g>
<!-- SecteursActiviteModule -->
<g id="node11" class="node">
<title>SecteursActiviteModule</title>
<polygon fill="#8dd3c7" stroke="black" points="944.07,-122 941.07,-126 920.07,-126 917.07,-122 791.93,-122 791.93,-86 944.07,-86 944.07,-122"/>
<text text-anchor="middle" x="868" y="-99.8" font-family="Times,serif" font-size="14.00">SecteursActiviteModule</text>
</g>
<!-- SecteursActiviteModule&#45;&gt;AppModule -->
<g id="edge11" class="edge">
<title>SecteursActiviteModule&#45;&gt;AppModule</title>
<path fill="none" stroke="black" d="M868,-122.03C868,-138.4 868,-160 868,-160 868,-160 1152.12,-160 1152.12,-160"/>
<polygon fill="black" stroke="black" points="1152.12,-163.5 1162.12,-160 1152.12,-156.5 1152.12,-163.5"/>
</g>
<!-- SubscriptionOptionsModule -->
<g id="node12" class="node">
<title>SubscriptionOptionsModule</title>
<polygon fill="#8dd3c7" stroke="black" points="774.16,-122 771.16,-126 750.16,-126 747.16,-122 599.84,-122 599.84,-86 774.16,-86 774.16,-122"/>
<text text-anchor="middle" x="687" y="-99.8" font-family="Times,serif" font-size="14.00">SubscriptionOptionsModule</text>
</g>
<!-- SubscriptionOptionsModule&#45;&gt;AppModule -->
<g id="edge12" class="edge">
<title>SubscriptionOptionsModule&#45;&gt;AppModule</title>
<path fill="none" stroke="black" d="M687,-122.3C687,-140.27 687,-165 687,-165 687,-165 1152.13,-165 1152.13,-165"/>
<polygon fill="black" stroke="black" points="1152.13,-168.5 1162.13,-165 1152.13,-161.5 1152.13,-168.5"/>
</g>
<!-- SubscriptionsModule -->
<g id="node13" class="node">
<title>SubscriptionsModule</title>
<polygon fill="#8dd3c7" stroke="black" points="581.77,-122 578.77,-126 557.77,-126 554.77,-122 446.23,-122 446.23,-86 581.77,-86 581.77,-122"/>
<text text-anchor="middle" x="514" y="-99.8" font-family="Times,serif" font-size="14.00">SubscriptionsModule</text>
</g>
<!-- SubscriptionsModule&#45;&gt;AppModule -->
<g id="edge13" class="edge">
<title>SubscriptionsModule&#45;&gt;AppModule</title>
<path fill="none" stroke="black" d="M514,-122.11C514,-141.34 514,-169 514,-169 514,-169 1152.13,-169 1152.13,-169"/>
<polygon fill="black" stroke="black" points="1152.13,-172.5 1162.13,-169 1152.13,-165.5 1152.13,-172.5"/>
</g>
<!-- UniquePurchasesModule -->
<g id="node14" class="node">
<title>UniquePurchasesModule</title>
<polygon fill="#8dd3c7" stroke="black" points="428.24,-122 425.24,-126 404.24,-126 401.24,-122 271.76,-122 271.76,-86 428.24,-86 428.24,-122"/>
<text text-anchor="middle" x="350" y="-99.8" font-family="Times,serif" font-size="14.00">UniquePurchasesModule</text>
</g>
<!-- UniquePurchasesModule&#45;&gt;AppModule -->
<g id="edge14" class="edge">
<title>UniquePurchasesModule&#45;&gt;AppModule</title>
<path fill="none" stroke="black" d="M350,-122.03C350,-142.77 350,-174 350,-174 350,-174 1152.23,-174 1152.23,-174"/>
<polygon fill="black" stroke="black" points="1152.23,-177.5 1162.23,-174 1152.23,-170.5 1152.23,-177.5"/>
</g>
<!-- UsersModule -->
<g id="node15" class="node">
<title>UsersModule</title>
<polygon fill="#8dd3c7" stroke="black" points="253.92,-122 250.92,-126 229.92,-126 226.92,-122 162.08,-122 162.08,-86 253.92,-86 253.92,-122"/>
<text text-anchor="middle" x="208" y="-99.8" font-family="Times,serif" font-size="14.00">UsersModule</text>
</g>
<!-- UsersModule&#45;&gt;AppModule -->
<g id="edge15" class="edge">
<title>UsersModule&#45;&gt;AppModule</title>
<path fill="none" stroke="black" d="M208,-122.29C208,-144.21 208,-178 208,-178 208,-178 1152.16,-178 1152.16,-178"/>
<polygon fill="black" stroke="black" points="1152.16,-181.5 1162.16,-178 1152.16,-174.5 1152.16,-181.5"/>
</g>
<!-- AppService -->
<g id="node17" class="node">
<title>AppService</title>
<ellipse fill="#fdb462" stroke="black" cx="81" cy="-104" rx="56.74" ry="18"/>
<text text-anchor="middle" x="81" y="-99.8" font-family="Times,serif" font-size="14.00">AppService</text>
</g>
<!-- AppService&#45;&gt;AppModule -->
<g id="edge16" class="edge">
<title>AppService&#45;&gt;AppModule</title>
<path fill="none" stroke="black" d="M81,-122.32C81,-145.66 81,-183 81,-183 81,-183 1152.03,-183 1152.03,-183"/>
<polygon fill="black" stroke="black" points="1152.03,-186.5 1162.03,-183 1152.03,-179.5 1152.03,-186.5"/>
</g>
</g>
</svg>
