<?xml version="1.0" encoding="UTF-8" standalone="no"?>
<!DOCTYPE svg PUBLIC "-//W3C//DTD SVG 1.1//EN"
 "http://www.w3.org/Graphics/SVG/1.1/DTD/svg11.dtd">
<!-- Generated by graphviz version 2.47.0 (20210316.0004)
 -->
<!-- Title: dependencies Pages: 1 -->
<svg width="3174pt" height="287pt"
 viewBox="0.00 0.00 3174.00 287.00" xmlns="http://www.w3.org/2000/svg" xmlns:xlink="http://www.w3.org/1999/xlink">
<g id="graph0" class="graph" transform="scale(1 1) rotate(0) translate(4 283)">
<title>dependencies</title>
<polygon fill="white" stroke="transparent" points="-4,4 -4,-283 3170,-283 3170,4 -4,4"/>
<text text-anchor="start" x="1562.01" y="-42.4" font-family="Times-12" font-weight="bold" font-size="14.00">Legend</text>
<polygon fill="#ffffb3" stroke="transparent" points="1349,-10 1349,-30 1369,-30 1369,-10 1349,-10"/>
<text text-anchor="start" x="1372.63" y="-15.4" font-family="Times-12" font-size="14.00"> &#160;Declarations</text>
<polygon fill="#8dd3c7" stroke="transparent" points="1462,-10 1462,-30 1482,-30 1482,-10 1462,-10"/>
<text text-anchor="start" x="1485.73" y="-15.4" font-family="Times-12" font-size="14.00"> &#160;Module</text>
<polygon fill="#80b1d3" stroke="transparent" points="1548,-10 1548,-30 1568,-30 1568,-10 1548,-10"/>
<text text-anchor="start" x="1571.78" y="-15.4" font-family="Times-12" font-size="14.00"> &#160;Bootstrap</text>
<polygon fill="#fdb462" stroke="transparent" points="1645,-10 1645,-30 1665,-30 1665,-10 1645,-10"/>
<text text-anchor="start" x="1668.67" y="-15.4" font-family="Times-12" font-size="14.00"> &#160;Providers</text>
<polygon fill="#fb8072" stroke="transparent" points="1741,-10 1741,-30 1761,-30 1761,-10 1741,-10"/>
<text text-anchor="start" x="1764.73" y="-15.4" font-family="Times-12" font-size="14.00"> &#160;Exports</text>
<g id="clust1" class="cluster">
<title>cluster_AppModule</title>
<polygon fill="none" stroke="black" stroke-dasharray="1,5" points="345,-146 345,-271 2647,-271 2647,-146 345,-146"/>
</g>
<g id="clust3" class="cluster">
<title>cluster_AppModule_imports</title>
<polygon fill="none" stroke="black" points="491,-154 491,-206 2639,-206 2639,-154 491,-154"/>
</g>
<g id="clust6" class="cluster">
<title>cluster_AppModule_providers</title>
<polygon fill="none" stroke="black" points="353,-154 353,-206 483,-206 483,-154 353,-154"/>
</g>
<g id="clust7" class="cluster">
<title>cluster_AuthModule</title>
<polygon fill="none" stroke="black" stroke-dasharray="1,5" points="8,-70 8,-138 158,-138 158,-70 8,-70"/>
</g>
<g id="clust12" class="cluster">
<title>cluster_AuthModule_providers</title>
<polygon fill="none" stroke="black" points="16,-78 16,-130 150,-130 150,-78 16,-78"/>
</g>
<g id="clust13" class="cluster">
<title>cluster_CategoriesModule</title>
<polygon fill="none" stroke="black" stroke-dasharray="1,5" points="166,-70 166,-138 360,-138 360,-70 166,-70"/>
</g>
<g id="clust18" class="cluster">
<title>cluster_CategoriesModule_providers</title>
<polygon fill="none" stroke="black" points="174,-78 174,-130 352,-130 352,-78 174,-78"/>
</g>
<g id="clust19" class="cluster">
<title>cluster_CompaniesModule</title>
<polygon fill="none" stroke="black" stroke-dasharray="1,5" points="368,-70 368,-138 566,-138 566,-70 368,-70"/>
</g>
<g id="clust24" class="cluster">
<title>cluster_CompaniesModule_providers</title>
<polygon fill="none" stroke="black" points="376,-78 376,-130 558,-130 558,-78 376,-78"/>
</g>
<g id="clust25" class="cluster">
<title>cluster_JobboardContactsModule</title>
<polygon fill="none" stroke="black" stroke-dasharray="1,5" points="574,-70 574,-138 824,-138 824,-70 574,-70"/>
</g>
<g id="clust30" class="cluster">
<title>cluster_JobboardContactsModule_providers</title>
<polygon fill="none" stroke="black" points="582,-78 582,-130 816,-130 816,-78 582,-78"/>
</g>
<g id="clust31" class="cluster">
<title>cluster_JobboardModule</title>
<polygon fill="none" stroke="black" stroke-dasharray="1,5" points="832,-70 832,-138 1014,-138 1014,-70 832,-70"/>
</g>
<g id="clust36" class="cluster">
<title>cluster_JobboardModule_providers</title>
<polygon fill="none" stroke="black" points="840,-78 840,-130 1006,-130 1006,-78 840,-78"/>
</g>
<g id="clust37" class="cluster">
<title>cluster_NotificationsModule</title>
<polygon fill="none" stroke="black" stroke-dasharray="1,5" points="1022,-70 1022,-138 1234,-138 1234,-70 1022,-70"/>
</g>
<g id="clust42" class="cluster">
<title>cluster_NotificationsModule_providers</title>
<polygon fill="none" stroke="black" points="1030,-78 1030,-130 1226,-130 1226,-78 1030,-78"/>
</g>
<g id="clust43" class="cluster">
<title>cluster_OptionsModule</title>
<polygon fill="none" stroke="black" stroke-dasharray="1,5" points="1242,-70 1242,-138 1416,-138 1416,-70 1242,-70"/>
</g>
<g id="clust48" class="cluster">
<title>cluster_OptionsModule_providers</title>
<polygon fill="none" stroke="black" points="1250,-78 1250,-130 1408,-130 1408,-78 1250,-78"/>
</g>
<g id="clust49" class="cluster">
<title>cluster_ParticularsModule</title>
<polygon fill="none" stroke="black" stroke-dasharray="1,5" points="1424,-70 1424,-138 1618,-138 1618,-70 1424,-70"/>
</g>
<g id="clust54" class="cluster">
<title>cluster_ParticularsModule_providers</title>
<polygon fill="none" stroke="black" points="1432,-78 1432,-130 1610,-130 1610,-78 1432,-78"/>
</g>
<g id="clust55" class="cluster">
<title>cluster_PaymentsModule</title>
<polygon fill="none" stroke="black" stroke-dasharray="1,5" points="1626,-70 1626,-138 1814,-138 1814,-70 1626,-70"/>
</g>
<g id="clust60" class="cluster">
<title>cluster_PaymentsModule_providers</title>
<polygon fill="none" stroke="black" points="1634,-78 1634,-130 1806,-130 1806,-78 1634,-78"/>
</g>
<g id="clust61" class="cluster">
<title>cluster_QuotesModule</title>
<polygon fill="none" stroke="black" stroke-dasharray="1,5" points="1822,-70 1822,-138 1988,-138 1988,-70 1822,-70"/>
</g>
<g id="clust66" class="cluster">
<title>cluster_QuotesModule_providers</title>
<polygon fill="none" stroke="black" points="1830,-78 1830,-130 1980,-130 1980,-78 1830,-78"/>
</g>
<g id="clust67" class="cluster">
<title>cluster_SecteursActiviteModule</title>
<polygon fill="none" stroke="black" stroke-dasharray="1,5" points="1996,-70 1996,-138 2236,-138 2236,-70 1996,-70"/>
</g>
<g id="clust72" class="cluster">
<title>cluster_SecteursActiviteModule_providers</title>
<polygon fill="none" stroke="black" points="2004,-78 2004,-130 2228,-130 2228,-78 2004,-78"/>
</g>
<g id="clust73" class="cluster">
<title>cluster_SubscriptionOptionsModule</title>
<polygon fill="none" stroke="black" stroke-dasharray="1,5" points="2244,-70 2244,-138 2514,-138 2514,-70 2244,-70"/>
</g>
<g id="clust78" class="cluster">
<title>cluster_SubscriptionOptionsModule_providers</title>
<polygon fill="none" stroke="black" points="2252,-78 2252,-130 2506,-130 2506,-78 2252,-78"/>
</g>
<g id="clust79" class="cluster">
<title>cluster_SubscriptionsModule</title>
<polygon fill="none" stroke="black" stroke-dasharray="1,5" points="2522,-70 2522,-138 2740,-138 2740,-70 2522,-70"/>
</g>
<g id="clust84" class="cluster">
<title>cluster_SubscriptionsModule_providers</title>
<polygon fill="none" stroke="black" points="2530,-78 2530,-130 2732,-130 2732,-78 2530,-78"/>
</g>
<g id="clust85" class="cluster">
<title>cluster_UniquePurchasesModule</title>
<polygon fill="none" stroke="black" stroke-dasharray="1,5" points="2748,-70 2748,-138 2994,-138 2994,-70 2748,-70"/>
</g>
<g id="clust90" class="cluster">
<title>cluster_UniquePurchasesModule_providers</title>
<polygon fill="none" stroke="black" points="2756,-78 2756,-130 2986,-130 2986,-78 2756,-78"/>
</g>
<g id="clust91" class="cluster">
<title>cluster_UsersModule</title>
<polygon fill="none" stroke="black" stroke-dasharray="1,5" points="3002,-70 3002,-138 3158,-138 3158,-70 3002,-70"/>
</g>
<g id="clust96" class="cluster">
<title>cluster_UsersModule_providers</title>
<polygon fill="none" stroke="black" points="3010,-78 3010,-130 3150,-130 3150,-78 3010,-78"/>
</g>
<!-- AuthModule -->
<g id="node1" class="node">
<title>AuthModule</title>
<polygon fill="#8dd3c7" stroke="black" points="586.55,-198 583.55,-202 562.55,-202 559.55,-198 499.45,-198 499.45,-162 586.55,-162 586.55,-198"/>
<text text-anchor="middle" x="543" y="-175.8" font-family="Times,serif" font-size="14.00">AuthModule</text>
</g>
<!-- AppModule -->
<g id="node16" class="node">
<title>AppModule</title>
<polygon fill="#8dd3c7" stroke="black" points="1497.66,-263 1494.66,-267 1473.66,-267 1470.66,-263 1414.34,-263 1414.34,-227 1497.66,-227 1497.66,-263"/>
<text text-anchor="middle" x="1456" y="-240.8" font-family="Times,serif" font-size="14.00">AppModule</text>
</g>
<!-- AuthModule&#45;&gt;AppModule -->
<g id="edge1" class="edge">
<title>AuthModule&#45;&gt;AppModule</title>
<path fill="none" stroke="black" d="M543,-198.29C543,-220.21 543,-254 543,-254 543,-254 1404.1,-254 1404.1,-254"/>
<polygon fill="black" stroke="black" points="1404.1,-257.5 1414.1,-254 1404.1,-250.5 1404.1,-257.5"/>
</g>
<!-- CategoriesModule -->
<g id="node2" class="node">
<title>CategoriesModule</title>
<polygon fill="#8dd3c7" stroke="black" points="723.92,-198 720.92,-202 699.92,-202 696.92,-198 604.08,-198 604.08,-162 723.92,-162 723.92,-198"/>
<text text-anchor="middle" x="664" y="-175.8" font-family="Times,serif" font-size="14.00">CategoriesModule</text>
</g>
<!-- CategoriesModule&#45;&gt;AppModule -->
<g id="edge2" class="edge">
<title>CategoriesModule&#45;&gt;AppModule</title>
<path fill="none" stroke="black" d="M664,-198.03C664,-218.77 664,-250 664,-250 664,-250 1404.26,-250 1404.26,-250"/>
<polygon fill="black" stroke="black" points="1404.26,-253.5 1414.26,-250 1404.26,-246.5 1404.26,-253.5"/>
</g>
<!-- CompaniesModule -->
<g id="node3" class="node">
<title>CompaniesModule</title>
<polygon fill="#8dd3c7" stroke="black" points="864.04,-198 861.04,-202 840.04,-202 837.04,-198 741.96,-198 741.96,-162 864.04,-162 864.04,-198"/>
<text text-anchor="middle" x="803" y="-175.8" font-family="Times,serif" font-size="14.00">CompaniesModule</text>
</g>
<!-- CompaniesModule&#45;&gt;AppModule -->
<g id="edge3" class="edge">
<title>CompaniesModule&#45;&gt;AppModule</title>
<path fill="none" stroke="black" d="M803,-198.11C803,-217.34 803,-245 803,-245 803,-245 1404.16,-245 1404.16,-245"/>
<polygon fill="black" stroke="black" points="1404.16,-248.5 1414.16,-245 1404.16,-241.5 1404.16,-248.5"/>
</g>
<!-- JobboardContactsModule -->
<g id="node4" class="node">
<title>JobboardContactsModule</title>
<polygon fill="#8dd3c7" stroke="black" points="1041.86,-198 1038.86,-202 1017.86,-202 1014.86,-198 882.14,-198 882.14,-162 1041.86,-162 1041.86,-198"/>
<text text-anchor="middle" x="962" y="-175.8" font-family="Times,serif" font-size="14.00">JobboardContactsModule</text>
</g>
<!-- JobboardContactsModule&#45;&gt;AppModule -->
<g id="edge4" class="edge">
<title>JobboardContactsModule&#45;&gt;AppModule</title>
<path fill="none" stroke="black" d="M962,-198.3C962,-216.27 962,-241 962,-241 962,-241 1404.31,-241 1404.31,-241"/>
<polygon fill="black" stroke="black" points="1404.31,-244.5 1414.31,-241 1404.31,-237.5 1404.31,-244.5"/>
</g>
<!-- JobboardModule -->
<g id="node5" class="node">
<title>JobboardModule</title>
<polygon fill="#8dd3c7" stroke="black" points="1170.37,-198 1167.37,-202 1146.37,-202 1143.37,-198 1059.63,-198 1059.63,-162 1170.37,-162 1170.37,-198"/>
<text text-anchor="middle" x="1115" y="-175.8" font-family="Times,serif" font-size="14.00">JobboardModule</text>
</g>
<!-- JobboardModule&#45;&gt;AppModule -->
<g id="edge5" class="edge">
<title>JobboardModule&#45;&gt;AppModule</title>
<path fill="none" stroke="black" d="M1115,-198.03C1115,-214.4 1115,-236 1115,-236 1115,-236 1404.19,-236 1404.19,-236"/>
<polygon fill="black" stroke="black" points="1404.19,-239.5 1414.19,-236 1404.19,-232.5 1404.19,-239.5"/>
</g>
<!-- NotificationsModule -->
<g id="node6" class="node">
<title>NotificationsModule</title>
<polygon fill="#8dd3c7" stroke="black" points="1321.14,-198 1318.14,-202 1297.14,-202 1294.14,-198 1188.86,-198 1188.86,-162 1321.14,-162 1321.14,-198"/>
<text text-anchor="middle" x="1255" y="-175.8" font-family="Times,serif" font-size="14.00">NotificationsModule</text>
</g>
<!-- NotificationsModule&#45;&gt;AppModule -->
<g id="edge6" class="edge">
<title>NotificationsModule&#45;&gt;AppModule</title>
<path fill="none" stroke="black" d="M1255,-198.19C1255,-213.18 1255,-232 1255,-232 1255,-232 1403.86,-232 1403.86,-232"/>
<polygon fill="black" stroke="black" points="1403.86,-235.5 1413.86,-232 1403.86,-228.5 1403.86,-235.5"/>
</g>
<!-- OptionsModule -->
<g id="node7" class="node">
<title>OptionsModule</title>
<polygon fill="#8dd3c7" stroke="black" points="1442.88,-198 1439.88,-202 1418.88,-202 1415.88,-198 1339.12,-198 1339.12,-162 1442.88,-162 1442.88,-198"/>
<text text-anchor="middle" x="1391" y="-175.8" font-family="Times,serif" font-size="14.00">OptionsModule</text>
</g>
<!-- OptionsModule&#45;&gt;AppModule -->
<g id="edge7" class="edge">
<title>OptionsModule&#45;&gt;AppModule</title>
<path fill="none" stroke="black" d="M1428.56,-198.11C1428.56,-198.11 1428.56,-216.99 1428.56,-216.99"/>
<polygon fill="black" stroke="black" points="1425.06,-216.99 1428.56,-226.99 1432.06,-216.99 1425.06,-216.99"/>
</g>
<!-- ParticularsModule -->
<g id="node8" class="node">
<title>ParticularsModule</title>
<polygon fill="#8dd3c7" stroke="black" points="1580.91,-198 1577.91,-202 1556.91,-202 1553.91,-198 1461.09,-198 1461.09,-162 1580.91,-162 1580.91,-198"/>
<text text-anchor="middle" x="1521" y="-175.8" font-family="Times,serif" font-size="14.00">ParticularsModule</text>
</g>
<!-- ParticularsModule&#45;&gt;AppModule -->
<g id="edge8" class="edge">
<title>ParticularsModule&#45;&gt;AppModule</title>
<path fill="none" stroke="black" d="M1479.56,-198.11C1479.56,-198.11 1479.56,-216.99 1479.56,-216.99"/>
<polygon fill="black" stroke="black" points="1476.06,-216.99 1479.56,-226.99 1483.06,-216.99 1476.06,-216.99"/>
</g>
<!-- PaymentsModule -->
<g id="node9" class="node">
<title>PaymentsModule</title>
<polygon fill="#8dd3c7" stroke="black" points="1712.99,-198 1709.99,-202 1688.99,-202 1685.99,-198 1599.01,-198 1599.01,-162 1712.99,-162 1712.99,-198"/>
<text text-anchor="middle" x="1656" y="-175.8" font-family="Times,serif" font-size="14.00">PaymentsModule</text>
</g>
<!-- PaymentsModule&#45;&gt;AppModule -->
<g id="edge9" class="edge">
<title>PaymentsModule&#45;&gt;AppModule</title>
<path fill="none" stroke="black" d="M1656,-198.19C1656,-213.18 1656,-232 1656,-232 1656,-232 1507.93,-232 1507.93,-232"/>
<polygon fill="black" stroke="black" points="1507.93,-228.5 1497.93,-232 1507.93,-235.5 1507.93,-228.5"/>
</g>
<!-- QuotesModule -->
<g id="node10" class="node">
<title>QuotesModule</title>
<polygon fill="#8dd3c7" stroke="black" points="1830.71,-198 1827.71,-202 1806.71,-202 1803.71,-198 1731.29,-198 1731.29,-162 1830.71,-162 1830.71,-198"/>
<text text-anchor="middle" x="1781" y="-175.8" font-family="Times,serif" font-size="14.00">QuotesModule</text>
</g>
<!-- QuotesModule&#45;&gt;AppModule -->
<g id="edge10" class="edge">
<title>QuotesModule&#45;&gt;AppModule</title>
<path fill="none" stroke="black" d="M1781,-198.03C1781,-214.4 1781,-236 1781,-236 1781,-236 1507.82,-236 1507.82,-236"/>
<polygon fill="black" stroke="black" points="1507.82,-232.5 1497.82,-236 1507.82,-239.5 1507.82,-232.5"/>
</g>
<!-- SecteursActiviteModule -->
<g id="node11" class="node">
<title>SecteursActiviteModule</title>
<polygon fill="#8dd3c7" stroke="black" points="2001.07,-198 1998.07,-202 1977.07,-202 1974.07,-198 1848.93,-198 1848.93,-162 2001.07,-162 2001.07,-198"/>
<text text-anchor="middle" x="1925" y="-175.8" font-family="Times,serif" font-size="14.00">SecteursActiviteModule</text>
</g>
<!-- SecteursActiviteModule&#45;&gt;AppModule -->
<g id="edge11" class="edge">
<title>SecteursActiviteModule&#45;&gt;AppModule</title>
<path fill="none" stroke="black" d="M1925,-198.3C1925,-216.27 1925,-241 1925,-241 1925,-241 1508.03,-241 1508.03,-241"/>
<polygon fill="black" stroke="black" points="1508.03,-237.5 1498.03,-241 1508.03,-244.5 1508.03,-237.5"/>
</g>
<!-- SubscriptionOptionsModule -->
<g id="node12" class="node">
<title>SubscriptionOptionsModule</title>
<polygon fill="#8dd3c7" stroke="black" points="2193.16,-198 2190.16,-202 2169.16,-202 2166.16,-198 2018.84,-198 2018.84,-162 2193.16,-162 2193.16,-198"/>
<text text-anchor="middle" x="2106" y="-175.8" font-family="Times,serif" font-size="14.00">SubscriptionOptionsModule</text>
</g>
<!-- SubscriptionOptionsModule&#45;&gt;AppModule -->
<g id="edge12" class="edge">
<title>SubscriptionOptionsModule&#45;&gt;AppModule</title>
<path fill="none" stroke="black" d="M2106,-198.11C2106,-217.34 2106,-245 2106,-245 2106,-245 1508.15,-245 1508.15,-245"/>
<polygon fill="black" stroke="black" points="1508.15,-241.5 1498.15,-245 1508.15,-248.5 1508.15,-241.5"/>
</g>
<!-- SubscriptionsModule -->
<g id="node13" class="node">
<title>SubscriptionsModule</title>
<polygon fill="#8dd3c7" stroke="black" points="2346.77,-198 2343.77,-202 2322.77,-202 2319.77,-198 2211.23,-198 2211.23,-162 2346.77,-162 2346.77,-198"/>
<text text-anchor="middle" x="2279" y="-175.8" font-family="Times,serif" font-size="14.00">SubscriptionsModule</text>
</g>
<!-- SubscriptionsModule&#45;&gt;AppModule -->
<g id="edge13" class="edge">
<title>SubscriptionsModule&#45;&gt;AppModule</title>
<path fill="none" stroke="black" d="M2279,-198.03C2279,-218.77 2279,-250 2279,-250 2279,-250 1507.66,-250 1507.66,-250"/>
<polygon fill="black" stroke="black" points="1507.66,-246.5 1497.66,-250 1507.66,-253.5 1507.66,-246.5"/>
</g>
<!-- UniquePurchasesModule -->
<g id="node14" class="node">
<title>UniquePurchasesModule</title>
<polygon fill="#8dd3c7" stroke="black" points="2521.24,-198 2518.24,-202 2497.24,-202 2494.24,-198 2364.76,-198 2364.76,-162 2521.24,-162 2521.24,-198"/>
<text text-anchor="middle" x="2443" y="-175.8" font-family="Times,serif" font-size="14.00">UniquePurchasesModule</text>
</g>
<!-- UniquePurchasesModule&#45;&gt;AppModule -->
<g id="edge14" class="edge">
<title>UniquePurchasesModule&#45;&gt;AppModule</title>
<path fill="none" stroke="black" d="M2443,-198.29C2443,-220.21 2443,-254 2443,-254 2443,-254 1507.78,-254 1507.78,-254"/>
<polygon fill="black" stroke="black" points="1507.78,-250.5 1497.78,-254 1507.78,-257.5 1507.78,-250.5"/>
</g>
<!-- UsersModule -->
<g id="node15" class="node">
<title>UsersModule</title>
<polygon fill="#8dd3c7" stroke="black" points="2630.92,-198 2627.92,-202 2606.92,-202 2603.92,-198 2539.08,-198 2539.08,-162 2630.92,-162 2630.92,-198"/>
<text text-anchor="middle" x="2585" y="-175.8" font-family="Times,serif" font-size="14.00">UsersModule</text>
</g>
<!-- UsersModule&#45;&gt;AppModule -->
<g id="edge15" class="edge">
<title>UsersModule&#45;&gt;AppModule</title>
<path fill="none" stroke="black" d="M2585,-198.32C2585,-221.66 2585,-259 2585,-259 2585,-259 1507.86,-259 1507.86,-259"/>
<polygon fill="black" stroke="black" points="1507.86,-255.5 1497.86,-259 1507.86,-262.5 1507.86,-255.5"/>
</g>
<!-- AppService -->
<g id="node17" class="node">
<title>AppService</title>
<ellipse fill="#fdb462" stroke="black" cx="418" cy="-180" rx="56.74" ry="18"/>
<text text-anchor="middle" x="418" y="-175.8" font-family="Times,serif" font-size="14.00">AppService</text>
</g>
<!-- AppService&#45;&gt;AppModule -->
<g id="edge16" class="edge">
<title>AppService&#45;&gt;AppModule</title>
<path fill="none" stroke="black" d="M418,-198.32C418,-221.66 418,-259 418,-259 418,-259 1404.02,-259 1404.02,-259"/>
<polygon fill="black" stroke="black" points="1404.02,-262.5 1414.02,-259 1404.02,-255.5 1404.02,-262.5"/>
</g>
<!-- AuthService -->
<g id="node18" class="node">
<title>AuthService</title>
<ellipse fill="#fdb462" stroke="black" cx="83" cy="-104" rx="59.11" ry="18"/>
<text text-anchor="middle" x="83" y="-99.8" font-family="Times,serif" font-size="14.00">AuthService</text>
</g>
<!-- AuthService&#45;&gt;AuthModule -->
<g id="edge17" class="edge">
<title>AuthService&#45;&gt;AuthModule</title>
<path fill="none" stroke="black" d="M83,-122.28C83,-137.95 83,-158 83,-158 83,-158 516.3,-158 516.3,-158 516.3,-158 516.3,-158.38 516.3,-158.38"/>
<polygon fill="black" stroke="black" points="512.8,-151.83 516.3,-161.83 519.8,-151.83 512.8,-151.83"/>
</g>
<!-- CategoriesService -->
<g id="node19" class="node">
<title>CategoriesService</title>
<ellipse fill="#fdb462" stroke="black" cx="263" cy="-104" rx="81.07" ry="18"/>
<text text-anchor="middle" x="263" y="-99.8" font-family="Times,serif" font-size="14.00">CategoriesService</text>
</g>
<!-- CategoriesService&#45;&gt;CategoriesModule -->
<g id="edge18" class="edge">
<title>CategoriesService&#45;&gt;CategoriesModule</title>
<path fill="none" stroke="black" d="M263,-122.05C263,-136.37 263,-154 263,-154 263,-154 664,-154 664,-154 664,-154 664,-154.79 664,-154.79"/>
<polygon fill="black" stroke="black" points="660.5,-151.94 664,-161.94 667.5,-151.94 660.5,-151.94"/>
</g>
<!-- CompaniesService -->
<g id="node20" class="node">
<title>CompaniesService</title>
<ellipse fill="#fdb462" stroke="black" cx="467" cy="-104" rx="83.38" ry="18"/>
<text text-anchor="middle" x="467" y="-99.8" font-family="Times,serif" font-size="14.00">CompaniesService</text>
</g>
<!-- CompaniesService&#45;&gt;CompaniesModule -->
<g id="edge19" class="edge">
<title>CompaniesService&#45;&gt;CompaniesModule</title>
<path fill="none" stroke="black" d="M533.37,-115.36C533.37,-128.69 533.37,-149 533.37,-149 533.37,-149 763.88,-149 763.88,-149 763.88,-149 763.88,-151.97 763.88,-151.97"/>
<polygon fill="black" stroke="black" points="760.38,-151.97 763.88,-161.97 767.38,-151.97 760.38,-151.97"/>
</g>
<!-- JobboardContactsService -->
<g id="node21" class="node">
<title>JobboardContactsService</title>
<ellipse fill="#fdb462" stroke="black" cx="699" cy="-104" rx="109.37" ry="18"/>
<text text-anchor="middle" x="699" y="-99.8" font-family="Times,serif" font-size="14.00">JobboardContactsService</text>
</g>
<!-- JobboardContactsService&#45;&gt;JobboardContactsModule -->
<g id="edge20" class="edge">
<title>JobboardContactsService&#45;&gt;JobboardContactsModule</title>
<path fill="none" stroke="black" d="M786.03,-115.2C786.03,-127.34 786.03,-145 786.03,-145 786.03,-145 920.84,-145 920.84,-145 920.84,-145 920.84,-151.68 920.84,-151.68"/>
<polygon fill="black" stroke="black" points="917.34,-151.68 920.84,-161.68 924.34,-151.68 917.34,-151.68"/>
</g>
<!-- JobboardService -->
<g id="node22" class="node">
<title>JobboardService</title>
<ellipse fill="#fdb462" stroke="black" cx="923" cy="-104" rx="75.28" ry="18"/>
<text text-anchor="middle" x="923" y="-99.8" font-family="Times,serif" font-size="14.00">JobboardService</text>
</g>
<!-- JobboardService&#45;&gt;JobboardModule -->
<g id="edge21" class="edge">
<title>JobboardService&#45;&gt;JobboardModule</title>
<path fill="none" stroke="black" d="M959.62,-119.89C959.62,-129.54 959.62,-140 959.62,-140 959.62,-140 1115,-140 1115,-140 1115,-140 1115,-151.87 1115,-151.87"/>
<polygon fill="black" stroke="black" points="1111.5,-151.87 1115,-161.87 1118.5,-151.87 1111.5,-151.87"/>
</g>
<!-- NotificationsService -->
<g id="node23" class="node">
<title>NotificationsService</title>
<ellipse fill="#fdb462" stroke="black" cx="1128" cy="-104" rx="90.32" ry="18"/>
<text text-anchor="middle" x="1128" y="-99.8" font-family="Times,serif" font-size="14.00">NotificationsService</text>
</g>
<!-- NotificationsService&#45;&gt;NotificationsModule -->
<g id="edge22" class="edge">
<title>NotificationsService&#45;&gt;NotificationsModule</title>
<path fill="none" stroke="black" d="M1203.54,-113.94C1203.54,-113.94 1203.54,-151.91 1203.54,-151.91"/>
<polygon fill="black" stroke="black" points="1200.04,-151.91 1203.54,-161.91 1207.04,-151.91 1200.04,-151.91"/>
</g>
<!-- OptionsService -->
<g id="node24" class="node">
<title>OptionsService</title>
<ellipse fill="#fdb462" stroke="black" cx="1329" cy="-104" rx="70.64" ry="18"/>
<text text-anchor="middle" x="1329" y="-99.8" font-family="Times,serif" font-size="14.00">OptionsService</text>
</g>
<!-- OptionsService&#45;&gt;OptionsModule -->
<g id="edge23" class="edge">
<title>OptionsService&#45;&gt;OptionsModule</title>
<path fill="none" stroke="black" d="M1369.32,-119.02C1369.32,-119.02 1369.32,-151.8 1369.32,-151.8"/>
<polygon fill="black" stroke="black" points="1365.82,-151.8 1369.32,-161.8 1372.82,-151.8 1365.82,-151.8"/>
</g>
<!-- ParticularsService -->
<g id="node25" class="node">
<title>ParticularsService</title>
<ellipse fill="#fdb462" stroke="black" cx="1521" cy="-104" rx="81.07" ry="18"/>
<text text-anchor="middle" x="1521" y="-99.8" font-family="Times,serif" font-size="14.00">ParticularsService</text>
</g>
<!-- ParticularsService&#45;&gt;ParticularsModule -->
<g id="edge24" class="edge">
<title>ParticularsService&#45;&gt;ParticularsModule</title>
<path fill="none" stroke="black" d="M1521,-122.01C1521,-122.01 1521,-151.85 1521,-151.85"/>
<polygon fill="black" stroke="black" points="1517.5,-151.85 1521,-161.85 1524.5,-151.85 1517.5,-151.85"/>
</g>
<!-- PaymentsService -->
<g id="node26" class="node">
<title>PaymentsService</title>
<ellipse fill="#fdb462" stroke="black" cx="1720" cy="-104" rx="77.58" ry="18"/>
<text text-anchor="middle" x="1720" y="-99.8" font-family="Times,serif" font-size="14.00">PaymentsService</text>
</g>
<!-- PaymentsService&#45;&gt;PaymentsModule -->
<g id="edge25" class="edge">
<title>PaymentsService&#45;&gt;PaymentsModule</title>
<path fill="none" stroke="black" d="M1677.73,-119.38C1677.73,-119.38 1677.73,-151.97 1677.73,-151.97"/>
<polygon fill="black" stroke="black" points="1674.23,-151.97 1677.73,-161.97 1681.23,-151.97 1674.23,-151.97"/>
</g>
<!-- QuotesService -->
<g id="node27" class="node">
<title>QuotesService</title>
<ellipse fill="#fdb462" stroke="black" cx="1905" cy="-104" rx="67.19" ry="18"/>
<text text-anchor="middle" x="1905" y="-99.8" font-family="Times,serif" font-size="14.00">QuotesService</text>
</g>
<!-- QuotesService&#45;&gt;QuotesModule -->
<g id="edge26" class="edge">
<title>QuotesService&#45;&gt;QuotesModule</title>
<path fill="none" stroke="black" d="M1843.31,-111.29C1843.31,-130.31 1843.31,-180 1843.31,-180 1843.31,-180 1840.7,-180 1840.7,-180"/>
<polygon fill="black" stroke="black" points="1840.7,-176.5 1830.7,-180 1840.7,-183.5 1840.7,-176.5"/>
</g>
<!-- SecteursActiviteService -->
<g id="node28" class="node">
<title>SecteursActiviteService</title>
<ellipse fill="#fdb462" stroke="black" cx="2116" cy="-104" rx="103.62" ry="18"/>
<text text-anchor="middle" x="2116" y="-99.8" font-family="Times,serif" font-size="14.00">SecteursActiviteService</text>
</g>
<!-- SecteursActiviteService&#45;&gt;SecteursActiviteModule -->
<g id="edge27" class="edge">
<title>SecteursActiviteService&#45;&gt;SecteursActiviteModule</title>
<path fill="none" stroke="black" d="M2011.93,-104C1997.06,-104 1986.69,-104 1986.69,-104 1986.69,-104 1986.69,-151.99 1986.69,-151.99"/>
<polygon fill="black" stroke="black" points="1983.19,-151.99 1986.69,-161.99 1990.19,-151.99 1983.19,-151.99"/>
</g>
<!-- SubscriptionOptionsService -->
<g id="node29" class="node">
<title>SubscriptionOptionsService</title>
<ellipse fill="#fdb462" stroke="black" cx="2379" cy="-104" rx="119.28" ry="18"/>
<text text-anchor="middle" x="2379" y="-99.8" font-family="Times,serif" font-size="14.00">SubscriptionOptionsService</text>
</g>
<!-- SubscriptionOptionsService&#45;&gt;SubscriptionOptionsModule -->
<g id="edge28" class="edge">
<title>SubscriptionOptionsService&#45;&gt;SubscriptionOptionsModule</title>
<path fill="none" stroke="black" d="M2288.7,-116.04C2288.7,-121.6 2288.7,-127 2288.7,-127 2288.7,-127 2106,-127 2106,-127 2106,-127 2106,-151.76 2106,-151.76"/>
<polygon fill="black" stroke="black" points="2102.5,-151.76 2106,-161.76 2109.5,-151.76 2102.5,-151.76"/>
</g>
<!-- SubscriptionsService -->
<g id="node30" class="node">
<title>SubscriptionsService</title>
<ellipse fill="#fdb462" stroke="black" cx="2631" cy="-104" rx="92.63" ry="18"/>
<text text-anchor="middle" x="2631" y="-99.8" font-family="Times,serif" font-size="14.00">SubscriptionsService</text>
</g>
<!-- SubscriptionsService&#45;&gt;SubscriptionsModule -->
<g id="edge29" class="edge">
<title>SubscriptionsService&#45;&gt;SubscriptionsModule</title>
<path fill="none" stroke="black" d="M2585,-119.71C2585,-125.65 2585,-131 2585,-131 2585,-131 2317.79,-131 2317.79,-131 2317.79,-131 2317.79,-151.75 2317.79,-151.75"/>
<polygon fill="black" stroke="black" points="2314.29,-151.75 2317.79,-161.75 2321.29,-151.75 2314.29,-151.75"/>
</g>
<!-- UniquePurchasesService -->
<g id="node31" class="node">
<title>UniquePurchasesService</title>
<ellipse fill="#fdb462" stroke="black" cx="2871" cy="-104" rx="107.06" ry="18"/>
<text text-anchor="middle" x="2871" y="-99.8" font-family="Times,serif" font-size="14.00">UniquePurchasesService</text>
</g>
<!-- UniquePurchasesService&#45;&gt;UniquePurchasesModule -->
<g id="edge30" class="edge">
<title>UniquePurchasesService&#45;&gt;UniquePurchasesModule</title>
<path fill="none" stroke="black" d="M2871,-122.24C2871,-129.43 2871,-136 2871,-136 2871,-136 2509.88,-136 2509.88,-136 2509.88,-136 2509.88,-151.85 2509.88,-151.85"/>
<polygon fill="black" stroke="black" points="2506.38,-151.85 2509.88,-161.85 2513.38,-151.85 2506.38,-151.85"/>
</g>
<!-- UsersService -->
<g id="node32" class="node">
<title>UsersService</title>
<ellipse fill="#fdb462" stroke="black" cx="3080" cy="-104" rx="61.95" ry="18"/>
<text text-anchor="middle" x="3080" y="-99.8" font-family="Times,serif" font-size="14.00">UsersService</text>
</g>
<!-- UsersService&#45;&gt;UsersModule -->
<g id="edge31" class="edge">
<title>UsersService&#45;&gt;UsersModule</title>
<path fill="none" stroke="black" d="M3080,-122.01C3080,-144.49 3080,-180 3080,-180 3080,-180 2641.12,-180 2641.12,-180"/>
<polygon fill="black" stroke="black" points="2641.12,-176.5 2631.12,-180 2641.12,-183.5 2641.12,-176.5"/>
</g>
</g>
</svg>
